# This file uses centimeters as units for non-parametric coordinates.

mtllib Gobcoin_High2.mtl
g default
v -6.563939 1.283168 6.354317
v 6.563939 1.283168 6.354317
v -6.563939 0.777828 6.354317
v 6.563939 0.789622 6.354317
v -6.563939 11.470077 -2.606887
v -6.563939 0.777828 -2.654490
v -3.570937 16.215790 -6.781588
v 6.563940 12.057720 -3.123825
v 6.563939 0.789622 -3.515390
v 4.096050 16.215790 -6.781588
v -6.563939 4.688376 0.351287
v 6.563939 4.414494 0.592215
vt 0.020353 0.389839
vt 0.537472 0.372836
vt 0.539670 0.707652
vt 0.444346 0.926668
vt 0.142302 0.929299
vt 0.022223 0.681323
vt 0.018420 0.098035
vt 0.535610 0.095034
vt 0.535740 0.114478
vt 0.018554 0.117943
vt 0.572916 0.506737
vt 0.538056 0.119466
vt 0.981580 0.095031
vt 0.694798 0.267838
vt 0.592281 0.504993
vt 0.968160 0.843087
vt 0.546975 0.850277
vt 0.542497 0.495386
vt 0.562404 0.495135
vt 0.699533 0.729924
vn 0.003597 0.657913 0.753085
vn 0.003623 0.663093 0.748528
vn 0.002872 0.514148 0.857697
vn 0.002872 0.514148 0.857697
vn 0.002872 0.514148 0.857697
vn 0.002872 0.514148 0.857697
vn 0.000000 0.000000 1.000000
vn 0.000000 0.000000 1.000000
vn 0.000000 0.000000 1.000000
vn 0.000000 0.000000 1.000000
vn 1.000000 0.000000 0.000000
vn 1.000000 0.000000 0.000000
vn 1.000000 0.000000 0.000000
vn 1.000000 0.000000 0.000000
vn 1.000000 0.000000 0.000000
vn -1.000000 0.000000 -0.000000
vn -1.000000 0.000000 -0.000000
vn -1.000000 0.000000 -0.000000
vn -1.000000 0.000000 -0.000000
vn -1.000000 0.000000 -0.000000
vn 0.004662 0.874137 0.485658
vn 0.004662 0.874137 0.485658
vn 0.003623 0.663093 0.748528
vn 0.003597 0.657913 0.753085
s off
g Gobcoin_High2:pCube1
usemtl initialShadingGroup
f 11/1/1 12/2/2 8/3/3 10/4/4 7/5/5 5/6/6
f 3/7/7 4/8/8 2/9/9 1/10/10
f 4/11/11 9/12/12 8/13/13 12/14/14 2/15/15
f 5/16/16 6/17/17 3/18/18 1/19/19 11/20/20
f 1/10/21 2/9/22 12/2/23 11/1/24
